<svg xmlns="http://www.w3.org/2000/svg" viewBox="0 0 400 320" role="img" aria-label="Salade tiède lardons, œuf poché, chèvre"><defs><radialGradient id="lg-shadow" cx="0.5" cy="0.5" r="0.5"><stop offset="0" stop-color="#3A2A14" stop-opacity="0.26"/><stop offset="0.6" stop-color="#3A2A14" stop-opacity="0.12"/><stop offset="1" stop-color="#3A2A14" stop-opacity="0"/></radialGradient><radialGradient id="lg-plate" cx="0.42" cy="0.35" r="0.75"><stop offset="0" stop-color="#FFFFFF"/><stop offset="0.7" stop-color="#F3F0EA"/><stop offset="1" stop-color="#DAD4C8"/></radialGradient><radialGradient id="lg-well" cx="0.5" cy="0.62" r="0.7"><stop offset="0" stop-color="#FBFAF7"/><stop offset="0.75" stop-color="#EFEBE3"/><stop offset="1" stop-color="#E2DCD0"/></radialGradient><radialGradient id="lg-lettuce" cx="0.36" cy="0.3" r="0.8"><stop offset="0" stop-color="#DCF2A8"/><stop offset="0.5" stop-color="#A2D262"/><stop offset="1" stop-color="#5E9A34"/></radialGradient><radialGradient id="lg-lardon" cx="0.36" cy="0.3" r="0.8"><stop offset="0" stop-color="#EDB096"/><stop offset="0.5" stop-color="#C8704E"/><stop offset="1" stop-color="#8A3A22"/></radialGradient><radialGradient id="lg-goat" cx="0.36" cy="0.3" r="0.8"><stop offset="0" stop-color="#FFFFFF"/><stop offset="0.5" stop-color="#F7F3EA"/><stop offset="1" stop-color="#DCD3C0"/></radialGradient><radialGradient id="lg-eggwhite" cx="0.36" cy="0.3" r="0.8"><stop offset="0" stop-color="#FFFFFF"/><stop offset="0.5" stop-color="#F6F2E8"/><stop offset="1" stop-color="#DAD2C0"/></radialGradient><radialGradient id="lg-yolk" cx="0.35" cy="0.28" r="0.75"><stop offset="0" stop-color="#FFD85E"/><stop offset="0.5" stop-color="#F5A81E"/><stop offset="1" stop-color="#C8700A"/></radialGradient><radialGradient id="lg-parsley" cx="0.36" cy="0.3" r="0.8"><stop offset="0" stop-color="#78B850"/><stop offset="0.5" stop-color="#3E8A2A"/><stop offset="1" stop-color="#24561A"/></radialGradient><symbol id="ing-assiette" viewBox="0 0 400 320"><g transform="translate(200 190)"><path d="M-184 26a190 70 0 1 0 380 0a190 70 0 1 0 -380 0Z" fill="url(#lg-shadow)"/><path d="M-172 0a172 78 0 1 0 344 0a172 78 0 1 0 -344 0Z" fill="url(#lg-plate)"/><path d="M-170 0a170 76 0 1 0 340 0a170 76 0 1 0 -340 0Z" fill="none" stroke="rgba(120,110,95,.18)" stroke-width="1" stroke-linecap="round" stroke-linejoin="round"/><path d="M-150 -28Q-60 -80 60 -76" fill="none" stroke="rgba(255,255,255,.95)" stroke-width="3" stroke-linecap="round" stroke-linejoin="round"/><path d="M-130 -3a130 57 0 1 0 260 0a130 57 0 1 0 -260 0Z" fill="url(#lg-well)"/><path d="M-130 -3a130 57 0 1 0 260 0a130 57 0 1 0 -260 0Z" fill="none" stroke="rgba(110,100,85,.16)" stroke-width="1.5" stroke-linecap="round" stroke-linejoin="round"/></g></symbol><symbol id="ing-laitue-plat" viewBox="0 0 400 320"><g transform="translate(200 184)"><g transform="scale(1.3)"><path d="M39.3 -14.1Q43 -10.6 37.7 -8.4Q32.4 -6.2 21.4 -6.5Q10.3 -6.9 -.1 -9.5Q-10.5 -12.2 -14.2 -15.7Q-17.8 -19.2 -12.5 -21.4Q-7.3 -23.6 3.8 -23.3Q14.9 -22.9 25.3 -20.2Q35.7 -17.6 39.3 -14.1ZM-40.9 -3.2Q-37.1 .8 -43 3Q-48.9 5.3 -61.1 4.6Q-73.2 4 -84.5 .7Q-95.8 -2.6 -99.6 -6.5Q-103.4 -10.4 -97.4 -12.7Q-91.5 -15 -79.4 -14.3Q-67.2 -13.6 -55.9 -10.3Q-44.6 -7.1 -40.9 -3.2ZM57.7 6.1Q62.8 9.2 57.9 12.4Q53.1 15.6 41.2 17.1Q29.3 18.6 17.3 17.5Q5.3 16.4 .3 13.3Q-4.8 10.2 .1 7Q4.9 3.7 16.8 2.2Q28.7 .8 40.7 1.9Q52.7 3 57.7 6.1ZM-18.5 6Q-12.8 7.5 -15.4 11.3Q-18 15.2 -27.4 19.2Q-36.9 23.2 -47.6 25Q-58.3 26.8 -64 25.3Q-69.8 23.9 -67.2 20Q-64.6 16.1 -55.1 12.1Q-45.7 8.1 -35 6.3Q-24.3 4.5 -18.5 6ZM55.7 39.2Q57.7 43.2 51.8 44.3Q45.9 45.4 35.4 42.8Q24.9 40.3 16.1 35.7Q7.2 31 5.1 27Q3.1 23 9 21.9Q14.9 20.8 25.4 23.3Q35.9 25.8 44.7 30.5Q53.6 35.1 55.7 39.2Z" fill="rgba(45,28,10,.15)"/><g transform="translate(11.1 -22.7) rotate(11.3) scale(1.15)"><path d="M-21 -14.3Q-15.2 -16.5 -8.5 -16.7Q-1.9 -16.9 3.5 -15.2Q8.8 -13.4 12.9 -11.6Q16.9 -9.8 22.6 -8Q28.2 -6.3 29.6 -2.8Q30.9 .7 29.4 4.3Q27.8 7.8 25.2 11.7Q22.6 15.5 15.4 16.2Q8.3 16.8 2 16.5Q-4.2 16.2 -8.6 13.9Q-13 11.6 -17.5 9.9Q-21.9 8.2 -27.3 5.7Q-32.6 3.1 -30.8 -.6Q-29 -4.2 -27.9 -8.2Q-26.9 -12.1 -21 -14.3Z" fill="url(#lg-lettuce)"/><path d="M-24 3Q0 -2 24 -4" fill="none" stroke="rgba(240,252,215,.75)" stroke-width="1.3" stroke-linecap="round" stroke-linejoin="round"/><path d="M-16 1Q-13 -6 -10 -12" fill="none" stroke="rgba(240,252,215,.45)" stroke-width="0.8" stroke-linecap="round" stroke-linejoin="round"/><path d="M-6 1Q-3 -6 0 -12" fill="none" stroke="rgba(240,252,215,.45)" stroke-width="0.8" stroke-linecap="round" stroke-linejoin="round"/><path d="M4 1Q7 -6 10 -12" fill="none" stroke="rgba(240,252,215,.45)" stroke-width="0.8" stroke-linecap="round" stroke-linejoin="round"/><path d="M14 1Q17 -6 20 -12" fill="none" stroke="rgba(240,252,215,.45)" stroke-width="0.8" stroke-linecap="round" stroke-linejoin="round"/></g><g transform="translate(-71.7 -13.4) rotate(13.5) scale(1.26)"><path d="M10.6 -18.2Q17.3 -16.8 19.4 -12.7Q21.4 -8.7 22.9 -5.8Q24.4 -2.8 29.4 .7Q34.4 4.3 28.4 6.8Q22.4 9.3 19.1 12.6Q15.8 15.8 9.6 17.6Q3.4 19.3 -3.1 17.8Q-9.6 16.3 -16.8 15.7Q-24.1 15 -27.2 11.2Q-30.2 7.5 -28 3.7Q-25.8 -.1 -28.9 -4.2Q-32.1 -8.2 -24.3 -9.4Q-16.5 -10.5 -13.4 -14.4Q-10.2 -18.2 -3.2 -18.9Q3.9 -19.6 10.6 -18.2Z" fill="url(#lg-lettuce)"/><path d="M-24 3Q0 -2 24 -4" fill="none" stroke="rgba(240,252,215,.75)" stroke-width="1.3" stroke-linecap="round" stroke-linejoin="round"/><path d="M-16 1Q-13 -6 -10 -12" fill="none" stroke="rgba(240,252,215,.45)" stroke-width="0.8" stroke-linecap="round" stroke-linejoin="round"/><path d="M-6 1Q-3 -6 0 -12" fill="none" stroke="rgba(240,252,215,.45)" stroke-width="0.8" stroke-linecap="round" stroke-linejoin="round"/><path d="M4 1Q7 -6 10 -12" fill="none" stroke="rgba(240,252,215,.45)" stroke-width="0.8" stroke-linecap="round" stroke-linejoin="round"/><path d="M14 1Q17 -6 20 -12" fill="none" stroke="rgba(240,252,215,.45)" stroke-width="0.8" stroke-linecap="round" stroke-linejoin="round"/></g><g transform="translate(27.5 1.2) rotate(-1.3) scale(1.25)"><path d="M26.7 4.5Q23.2 7.4 18.8 9.2Q14.5 11 10.5 13.8Q6.6 16.5 .2 17Q-6.1 17.5 -11.3 15.4Q-16.5 13.2 -19.7 10.5Q-22.9 7.7 -26.4 4.9Q-29.8 2 -26.7 -1.1Q-23.6 -4.2 -20.9 -6.6Q-18.1 -9 -15 -11.8Q-11.9 -14.6 -6.1 -16.1Q-.4 -17.7 6.5 -17.7Q13.3 -17.6 15.6 -13.5Q17.9 -9.4 22 -7.2Q26 -5 28.1 -1.7Q30.2 1.6 26.7 4.5Z" fill="url(#lg-lettuce)"/><path d="M-24 3Q0 -2 24 -4" fill="none" stroke="rgba(240,252,215,.75)" stroke-width="1.3" stroke-linecap="round" stroke-linejoin="round"/><path d="M-16 1Q-13 -6 -10 -12" fill="none" stroke="rgba(240,252,215,.45)" stroke-width="0.8" stroke-linecap="round" stroke-linejoin="round"/><path d="M-6 1Q-3 -6 0 -12" fill="none" stroke="rgba(240,252,215,.45)" stroke-width="0.8" stroke-linecap="round" stroke-linejoin="round"/><path d="M4 1Q7 -6 10 -12" fill="none" stroke="rgba(240,252,215,.45)" stroke-width="0.8" stroke-linecap="round" stroke-linejoin="round"/><path d="M14 1Q17 -6 20 -12" fill="none" stroke="rgba(240,252,215,.45)" stroke-width="0.8" stroke-linecap="round" stroke-linejoin="round"/></g><g transform="translate(-42.8 7.9) rotate(-22.3) scale(1.14)"><path d="M2.9 15.5Q-3 15.1 -7.6 13.4Q-12.2 11.7 -18.4 10.8Q-24.5 9.9 -27.5 6.7Q-30.4 3.5 -27.3 .2Q-24.2 -3 -21.9 -5.6Q-19.6 -8.2 -16.5 -10.8Q-13.3 -13.3 -8.2 -16Q-3.2 -18.7 3.1 -17.3Q9.4 -15.9 14 -13.7Q18.6 -11.5 25 -9.6Q31.5 -7.8 28.3 -3.8Q25.1 .1 28.6 4.2Q32.2 8.3 27.5 11.4Q22.8 14.6 15.8 15.2Q8.8 15.9 2.9 15.5Z" fill="url(#lg-lettuce)"/><path d="M-24 3Q0 -2 24 -4" fill="none" stroke="rgba(240,252,215,.75)" stroke-width="1.3" stroke-linecap="round" stroke-linejoin="round"/><path d="M-16 1Q-13 -6 -10 -12" fill="none" stroke="rgba(240,252,215,.45)" stroke-width="0.8" stroke-linecap="round" stroke-linejoin="round"/><path d="M-6 1Q-3 -6 0 -12" fill="none" stroke="rgba(240,252,215,.45)" stroke-width="0.8" stroke-linecap="round" stroke-linejoin="round"/><path d="M4 1Q7 -6 10 -12" fill="none" stroke="rgba(240,252,215,.45)" stroke-width="0.8" stroke-linecap="round" stroke-linejoin="round"/><path d="M14 1Q17 -6 20 -12" fill="none" stroke="rgba(240,252,215,.45)" stroke-width="0.8" stroke-linecap="round" stroke-linejoin="round"/></g><g transform="translate(28.9 25.3) rotate(27.9) scale(1.15)"><path d="M-21.1 -10.2Q-16.8 -12.5 -11.2 -13.1Q-5.6 -13.7 0 -15.3Q5.7 -16.8 11.5 -15.5Q17.3 -14.1 19.1 -10.6Q20.8 -7.1 22.4 -4.4Q24.1 -1.7 28.3 1.9Q32.4 5.6 26.9 8Q21.3 10.4 17.8 13.8Q14.3 17.2 7.5 18.6Q.7 20.1 -5.3 17.6Q-11.3 15.2 -15.1 12.6Q-18.9 10.1 -22.1 7.5Q-25.4 5 -28.1 1.8Q-30.8 -1.5 -28.2 -4.7Q-25.5 -8 -21.1 -10.2Z" fill="url(#lg-lettuce)"/><path d="M-24 3Q0 -2 24 -4" fill="none" stroke="rgba(240,252,215,.75)" stroke-width="1.3" stroke-linecap="round" stroke-linejoin="round"/><path d="M-16 1Q-13 -6 -10 -12" fill="none" stroke="rgba(240,252,215,.45)" stroke-width="0.8" stroke-linecap="round" stroke-linejoin="round"/><path d="M-6 1Q-3 -6 0 -12" fill="none" stroke="rgba(240,252,215,.45)" stroke-width="0.8" stroke-linecap="round" stroke-linejoin="round"/><path d="M4 1Q7 -6 10 -12" fill="none" stroke="rgba(240,252,215,.45)" stroke-width="0.8" stroke-linecap="round" stroke-linejoin="round"/><path d="M14 1Q17 -6 20 -12" fill="none" stroke="rgba(240,252,215,.45)" stroke-width="0.8" stroke-linecap="round" stroke-linejoin="round"/></g></g></g></symbol><symbol id="ing-lardons-eparpille" viewBox="0 0 400 320"><g transform="translate(200 184)"><g transform="scale(1.3)"><path d="M15.8 -26.3Q16.3 -25.1 14.6 -24.6Q12.8 -24.2 9.7 -24.9Q6.7 -25.5 4.1 -26.8Q1.5 -28.2 .9 -29.4Q.3 -30.6 2.1 -31Q3.8 -31.5 6.9 -30.8Q10 -30.2 12.6 -28.9Q15.2 -27.5 15.8 -26.3ZM-45.6 -20.3Q-44.9 -19.1 -46.6 -18.6Q-48.3 -18.1 -51.3 -18.6Q-54.4 -19 -57.1 -20.2Q-59.7 -21.4 -60.4 -22.6Q-61.1 -23.7 -59.5 -24.2Q-57.8 -24.7 -54.7 -24.3Q-51.6 -23.8 -49 -22.6Q-46.3 -21.4 -45.6 -20.3ZM20.5 -20.6Q22.3 -20.5 22.1 -19.2Q21.9 -17.9 19.7 -16.3Q17.6 -14.6 14.7 -13.6Q11.9 -12.5 10.1 -12.7Q8.3 -12.8 8.5 -14.1Q8.7 -15.4 10.9 -17Q13 -18.7 15.8 -19.7Q18.6 -20.8 20.5 -20.6ZM-41.3 -.6Q-40.4 .6 -41.9 1.2Q-43.5 1.9 -46.7 1.7Q-49.9 1.5 -52.8 .6Q-55.7 -.4 -56.6 -1.5Q-57.5 -2.6 -56 -3.3Q-54.4 -3.9 -51.2 -3.7Q-48 -3.5 -45.1 -2.6Q-42.2 -1.7 -41.3 -.6ZM88.7 -.6Q89.7 .3 88.3 1.1Q86.9 1.8 83.9 1.9Q80.9 2 78 1.3Q75.1 .7 74.1 -.3Q73 -1.3 74.4 -2.1Q75.8 -2.8 78.8 -2.9Q81.9 -2.9 84.7 -2.3Q87.6 -1.6 88.7 -.6ZM41.4 3.4Q41.6 4.6 39.9 4.8Q38.1 4.9 35.4 3.9Q32.8 2.9 30.7 1.3Q28.7 -.3 28.5 -1.6Q28.3 -2.8 30.1 -2.9Q31.8 -3.1 34.5 -2Q37.2 -1 39.2 .6Q41.2 2.2 41.4 3.4ZM-67.5 5Q-67.6 6.2 -69.3 6.1Q-71 6.1 -73.2 4.8Q-75.5 3.5 -77 1.7Q-78.5 0 -78.3 -1.2Q-78.2 -2.4 -76.5 -2.3Q-74.9 -2.2 -72.6 -.9Q-70.4 .4 -68.8 2.1Q-67.3 3.9 -67.5 5ZM55.7 2.4Q57.5 2.6 57.2 3.8Q56.8 5.1 54.6 6.6Q52.4 8.1 49.6 9Q46.9 9.9 45.1 9.7Q43.4 9.4 43.7 8.2Q44 7 46.2 5.5Q48.4 4 51.2 3.1Q54 2.2 55.7 2.4ZM13.5 5.9Q15.2 5.9 15.3 7Q15.4 8.2 13.7 10Q12.1 11.7 9.8 12.9Q7.4 14.2 5.7 14.2Q4 14.2 3.9 13Q3.9 11.8 5.5 10.1Q7.1 8.4 9.5 7.2Q11.8 5.9 13.5 5.9ZM19 32.9Q20.1 33.9 18.7 34.7Q17.3 35.4 14.3 35.6Q11.2 35.8 8.3 35.2Q5.4 34.6 4.2 33.7Q3.1 32.7 4.5 31.9Q5.8 31.1 8.9 31Q11.9 30.8 14.9 31.4Q17.8 31.9 19 32.9Z" fill="rgba(45,28,10,.15)"/><g transform="translate(6.8 -30.3) rotate(26.3) scale(1.24)"><path d="M-5 -4.5H5Q7.5 -4.5 7.5 -2V2Q7.5 4.5 5 4.5H-5Q-7.5 4.5 -7.5 2V-2Q-7.5 -4.5 -5 -4.5Z" fill="url(#lg-lardon)"/><path d="M-5.3 -2.2H5.3Q6.5 -2.2 6.5 -1V-1Q6.5 .2 5.3 .2H-5.3Q-6.5 .2 -6.5 -1V-1Q-6.5 -2.2 -5.3 -2.2Z" fill="#FBEBDD"/><path d="M.5 -3.3Q1.1 -2.8 -.3 -2.5Q-1.7 -2.1 -3.5 -2.2Q-5.3 -2.3 -6 -2.7Q-6.6 -3.2 -5.5 -3.5Q-4.3 -3.9 -2.2 -3.9Q-.2 -3.8 .5 -3.3Z" fill="rgba(255,255,255,.4)"/></g><g transform="translate(-54.5 -23.8) rotate(22.3) scale(1.22)"><path d="M-5 -4.5H5Q7.5 -4.5 7.5 -2V2Q7.5 4.5 5 4.5H-5Q-7.5 4.5 -7.5 2V-2Q-7.5 -4.5 -5 -4.5Z" fill="url(#lg-lardon)"/><path d="M-5.3 -2.2H5.3Q6.5 -2.2 6.5 -1V-1Q6.5 .2 5.3 .2H-5.3Q-6.5 .2 -6.5 -1V-1Q-6.5 -2.2 -5.3 -2.2Z" fill="#FBEBDD"/><path d="M-5.1 -3.6Q-4 -4 -2.3 -3.8Q-.6 -3.6 -.2 -3.2Q.3 -2.8 -.9 -2.4Q-2 -2 -4 -2.1Q-6 -2.3 -6.1 -2.7Q-6.3 -3.2 -5.1 -3.6Z" fill="rgba(255,255,255,.4)"/></g><g transform="translate(13.8 -19.1) rotate(-37.8) scale(1.23)"><path d="M-5 -4.5H5Q7.5 -4.5 7.5 -2V2Q7.5 4.5 5 4.5H-5Q-7.5 4.5 -7.5 2V-2Q-7.5 -4.5 -5 -4.5Z" fill="url(#lg-lardon)"/><path d="M-5.3 -2.2H5.3Q6.5 -2.2 6.5 -1V-1Q6.5 .2 5.3 .2H-5.3Q-6.5 .2 -6.5 -1V-1Q-6.5 -2.2 -5.3 -2.2Z" fill="#FBEBDD"/><path d="M-4.4 -2.3Q-5.8 -2.6 -6.2 -3.1Q-6.6 -3.5 -4.8 -3.8Q-3 -4.2 -1.6 -3.8Q-.2 -3.4 .2 -3Q.6 -2.5 -1.2 -2.3Q-3 -2 -4.4 -2.3Z" fill="rgba(255,255,255,.4)"/></g><g transform="translate(-50.5 -3.5) rotate(14.8) scale(1.23)"><path d="M-5 -4.5H5Q7.5 -4.5 7.5 -2V2Q7.5 4.5 5 4.5H-5Q-7.5 4.5 -7.5 2V-2Q-7.5 -4.5 -5 -4.5Z" fill="url(#lg-lardon)"/><path d="M-5.3 -2.2H5.3Q6.5 -2.2 6.5 -1V-1Q6.5 .2 5.3 .2H-5.3Q-6.5 .2 -6.5 -1V-1Q-6.5 -2.2 -5.3 -2.2Z" fill="#FBEBDD"/><path d="M-5.2 -3.7Q-4.2 -4.1 -2.2 -3.9Q-.1 -3.7 0 -3.3Q.1 -2.8 -.9 -2.4Q-2 -2.1 -3.6 -2.3Q-5.3 -2.4 -5.7 -2.8Q-6.1 -3.2 -5.2 -3.7Z" fill="rgba(255,255,255,.4)"/></g><g transform="translate(79.9 -2.8) rotate(8.1) scale(1.17)"><path d="M-5 -4.5H5Q7.5 -4.5 7.5 -2V2Q7.5 4.5 5 4.5H-5Q-7.5 4.5 -7.5 2V-2Q-7.5 -4.5 -5 -4.5Z" fill="url(#lg-lardon)"/><path d="M-5.3 -2.2H5.3Q6.5 -2.2 6.5 -1V-1Q6.5 .2 5.3 .2H-5.3Q-6.5 .2 -6.5 -1V-1Q-6.5 -2.2 -5.3 -2.2Z" fill="#FBEBDD"/><path d="M.2 -3.4Q1.5 -3 0 -2.6Q-1.4 -2.3 -3.4 -2.1Q-5.4 -2 -6 -2.5Q-6.5 -3 -5.8 -3.5Q-5.1 -3.9 -3.1 -3.9Q-1.1 -3.8 .2 -3.4Z" fill="rgba(255,255,255,.4)"/></g><g transform="translate(33.5 -1.4) rotate(38.7) scale(1.18)"><path d="M-5 -4.5H5Q7.5 -4.5 7.5 -2V2Q7.5 4.5 5 4.5H-5Q-7.5 4.5 -7.5 2V-2Q-7.5 -4.5 -5 -4.5Z" fill="url(#lg-lardon)"/><path d="M-5.3 -2.2H5.3Q6.5 -2.2 6.5 -1V-1Q6.5 .2 5.3 .2H-5.3Q-6.5 .2 -6.5 -1V-1Q-6.5 -2.2 -5.3 -2.2Z" fill="#FBEBDD"/><path d="M-6.5 -2.7Q-6.6 -3.2 -5.3 -3.6Q-4.1 -4 -2 -3.9Q.2 -3.8 .3 -3.3Q.4 -2.8 -.8 -2.4Q-2.1 -2.1 -4.2 -2.1Q-6.3 -2.2 -6.5 -2.7Z" fill="rgba(255,255,255,.4)"/></g><g transform="translate(-74.4 -.3) rotate(49.1) scale(1.13)"><path d="M-5 -4.5H5Q7.5 -4.5 7.5 -2V2Q7.5 4.5 5 4.5H-5Q-7.5 4.5 -7.5 2V-2Q-7.5 -4.5 -5 -4.5Z" fill="url(#lg-lardon)"/><path d="M-5.3 -2.2H5.3Q6.5 -2.2 6.5 -1V-1Q6.5 .2 5.3 .2H-5.3Q-6.5 .2 -6.5 -1V-1Q-6.5 -2.2 -5.3 -2.2Z" fill="#FBEBDD"/><path d="M-5.5 -2.4Q-7.4 -2.6 -6.9 -3.1Q-6.4 -3.7 -4.3 -3.9Q-2.2 -4.2 -.6 -3.8Q1 -3.4 .4 -2.9Q-.3 -2.4 -1.9 -2.3Q-3.5 -2.2 -5.5 -2.4Z" fill="rgba(255,255,255,.4)"/></g><g transform="translate(48.9 3.6) rotate(-34.5) scale(1.19)"><path d="M-5 -4.5H5Q7.5 -4.5 7.5 -2V2Q7.5 4.5 5 4.5H-5Q-7.5 4.5 -7.5 2V-2Q-7.5 -4.5 -5 -4.5Z" fill="url(#lg-lardon)"/><path d="M-5.3 -2.2H5.3Q6.5 -2.2 6.5 -1V-1Q6.5 .2 5.3 .2H-5.3Q-6.5 .2 -6.5 -1V-1Q-6.5 -2.2 -5.3 -2.2Z" fill="#FBEBDD"/><path d="M.4 -3.4Q1.5 -2.9 .2 -2.4Q-1.1 -1.9 -3.2 -2Q-5.4 -2.2 -6.5 -2.7Q-7.7 -3.1 -6.3 -3.6Q-4.9 -4.1 -2.8 -3.9Q-.6 -3.8 .4 -3.4Z" fill="rgba(255,255,255,.4)"/></g><g transform="translate(8.1 7.8) rotate(-46.8) scale(1.14)"><path d="M-5 -4.5H5Q7.5 -4.5 7.5 -2V2Q7.5 4.5 5 4.5H-5Q-7.5 4.5 -7.5 2V-2Q-7.5 -4.5 -5 -4.5Z" fill="url(#lg-lardon)"/><path d="M-5.3 -2.2H5.3Q6.5 -2.2 6.5 -1V-1Q6.5 .2 5.3 .2H-5.3Q-6.5 .2 -6.5 -1V-1Q-6.5 -2.2 -5.3 -2.2Z" fill="#FBEBDD"/><path d="M-6.8 -3Q-6.5 -3.6 -4.7 -3.7Q-2.9 -3.8 -.9 -3.7Q1.2 -3.6 1 -3Q.8 -2.4 -1.2 -2.2Q-3.1 -2 -5.1 -2.2Q-7.1 -2.5 -6.8 -3Z" fill="rgba(255,255,255,.4)"/></g><g transform="translate(10.1 30.9) rotate(5.6) scale(1.18)"><path d="M-5 -4.5H5Q7.5 -4.5 7.5 -2V2Q7.5 4.5 5 4.5H-5Q-7.5 4.5 -7.5 2V-2Q-7.5 -4.5 -5 -4.5Z" fill="url(#lg-lardon)"/><path d="M-5.3 -2.2H5.3Q6.5 -2.2 6.5 -1V-1Q6.5 .2 5.3 .2H-5.3Q-6.5 .2 -6.5 -1V-1Q-6.5 -2.2 -5.3 -2.2Z" fill="#FBEBDD"/><path d="M-6.2 -2.6Q-6.6 -3.1 -5.4 -3.5Q-4.2 -3.8 -2.6 -3.7Q-1 -3.6 -.1 -3.2Q.8 -2.8 -.3 -2.4Q-1.4 -1.9 -3.6 -2Q-5.8 -2.2 -6.2 -2.6Z" fill="rgba(255,255,255,.4)"/></g></g></g></symbol><symbol id="ing-chevre-eparpille" viewBox="0 0 400 320"><g transform="translate(200 184)"><g transform="scale(1.3)"><path d="M24.4 -9.6Q26.2 -7.8 24.3 -6.1Q22.4 -4.4 17.8 -3.7Q13.2 -3 8.7 -3.8Q4.2 -4.6 2.4 -6.4Q.6 -8.2 2.5 -9.9Q4.4 -11.7 9 -12.3Q13.6 -13 18.1 -12.2Q22.6 -11.4 24.4 -9.6ZM-61.4 -10.5Q-59.3 -9 -60.7 -7.2Q-62.2 -5.3 -66.3 -4.2Q-70.5 -3.1 -74.9 -3.4Q-79.3 -3.6 -81.4 -5.1Q-83.5 -6.6 -82.1 -8.4Q-80.6 -10.3 -76.5 -11.4Q-72.4 -12.5 -67.9 -12.2Q-63.5 -12 -61.4 -10.5ZM.3 -3.8Q2 -1.9 -.1 -.1Q-2.2 1.6 -6.9 2.1Q-11.7 2.7 -16.3 1.7Q-20.9 .8 -22.7 -1.1Q-24.4 -3.1 -22.3 -4.8Q-20.2 -6.5 -15.5 -7.1Q-10.7 -7.6 -6.1 -6.6Q-1.5 -5.7 .3 -3.8ZM17.8 2.7Q19.9 4.1 18.5 5.9Q17.1 7.7 13.1 8.9Q9 10 4.7 9.8Q.3 9.6 -1.8 8.1Q-3.9 6.7 -2.5 4.9Q-1.1 3.1 2.9 1.9Q7 .8 11.3 1Q15.7 1.2 17.8 2.7ZM-36.1 9.6Q-33.9 11.3 -35.6 13.2Q-37.4 15.1 -41.9 16.1Q-46.4 17.1 -51.1 16.6Q-55.8 16.1 -57.9 14.4Q-60.1 12.7 -58.4 10.8Q-56.7 8.9 -52.1 7.9Q-47.6 6.9 -42.9 7.4Q-38.2 7.9 -36.1 9.6Z" fill="rgba(45,28,10,.15)"/><g transform="translate(11.9 -12.8) rotate(1.2) scale(1.19)"><path d="M-2 9Q-5.9 8.4 -8.5 5.9Q-11.2 3.3 -11 0Q-10.9 -3.4 -8.3 -5.9Q-5.8 -8.5 -1.8 -9.3Q2.2 -10.1 5.9 -8.4Q9.7 -6.7 10.6 -3.3Q11.6 .1 10.4 3.3Q9.1 6.5 5.6 8Q2 9.6 -2 9Z" fill="url(#lg-goat)"/><path d="M-11.2 0a11.2 9.2 0 1 0 22.4 0a11.2 9.2 0 1 0 -22.4 0Z" fill="none" stroke="#E6DECB" stroke-width="1.6" stroke-linecap="round" stroke-linejoin="round"/><path d="M5.6 2.8Q5.3 3.9 3.8 3.7Q2.2 3.4 1.4 2.8Q.6 2.2 .6 1.2Q.6 .1 2.3 .2Q3.9 .4 4.9 1Q5.9 1.7 5.6 2.8Z" fill="rgba(210,200,180,.5)"/><path d="M-1.5 -4.9Q-.7 -4.2 -.9 -3.4Q-1.1 -2.6 -3.2 -2.7Q-5.4 -2.7 -6.8 -3.2Q-8.3 -3.7 -7.2 -4.4Q-6.1 -5 -4.2 -5.3Q-2.3 -5.6 -1.5 -4.9Z" fill="rgba(255,255,255,.6)"/></g><g transform="translate(-72.9 -12.3) rotate(-8.1) scale(1.13)"><path d="M11.1 1Q10.7 4.3 7.8 6.8Q5 9.2 .8 9.6Q-3.4 10 -6.8 7.9Q-10.1 5.7 -10.9 2.4Q-11.7 -1 -10.2 -4.2Q-8.7 -7.5 -4.8 -8.8Q-.9 -10.2 3.2 -9.3Q7.3 -8.5 9.4 -5.4Q11.5 -2.4 11.1 1Z" fill="url(#lg-goat)"/><path d="M-11.2 0a11.2 9.2 0 1 0 22.4 0a11.2 9.2 0 1 0 -22.4 0Z" fill="none" stroke="#E6DECB" stroke-width="1.6" stroke-linecap="round" stroke-linejoin="round"/><path d="M3.1 4.1Q1.4 3.9 .6 2.9Q-.2 2 .5 .9Q1.2 -.1 2.7 .3Q4.1 .7 5.5 1.3Q6.8 2 5.8 3.1Q4.9 4.2 3.1 4.1Z" fill="rgba(210,200,180,.5)"/><path d="M-.7 -4.3Q-.3 -3.6 -1.8 -3.2Q-3.3 -2.8 -4.9 -3Q-6.5 -3.1 -7 -3.8Q-7.6 -4.4 -6.3 -5Q-5 -5.6 -3 -5.3Q-1.1 -5 -.7 -4.3Z" fill="rgba(255,255,255,.6)"/></g><g transform="translate(-12.7 -7.4) rotate(3.7) scale(1.23)"><path d="M-6.4 -7.5Q-3.3 -9.6 .9 -9.5Q5 -9.4 8.1 -7Q11.2 -4.6 11.1 -1.1Q11.1 2.3 9.2 5.4Q7.3 8.4 3.2 9.4Q-.9 10.3 -4.5 8.6Q-8.1 7 -10.2 4Q-12.2 1.1 -10.9 -2.2Q-9.6 -5.4 -6.4 -7.5Z" fill="url(#lg-goat)"/><path d="M-11.2 0a11.2 9.2 0 1 0 22.4 0a11.2 9.2 0 1 0 -22.4 0Z" fill="none" stroke="#E6DECB" stroke-width="1.6" stroke-linecap="round" stroke-linejoin="round"/><path d="M1.1 3Q.1 2.4 .8 1.7Q1.6 .9 2.8 .4Q4.1 -.2 4.8 .7Q5.6 1.7 5 2.4Q4.4 3.1 3.3 3.3Q2.2 3.5 1.1 3Z" fill="rgba(210,200,180,.5)"/><path d="M-3.4 -5.3Q-1.5 -5.1 -1.1 -4.5Q-.8 -3.8 -1.7 -3.2Q-2.6 -2.6 -4.3 -2.8Q-6 -3.1 -6.9 -3.7Q-7.7 -4.2 -6.5 -4.8Q-5.4 -5.4 -3.4 -5.3Z" fill="rgba(255,255,255,.6)"/></g><g transform="translate(6.5 1) rotate(-8.9) scale(1.11)"><path d="M-9.4 -5.8Q-7 -8.7 -2.8 -9.2Q1.3 -9.7 5 -8.3Q8.7 -6.9 10.6 -3.8Q12.4 -.6 10.8 2.5Q9.2 5.7 6 7.8Q2.9 9.9 -1.4 9.6Q-5.6 9.4 -8.4 6.7Q-11.1 4 -11.5 .6Q-11.9 -2.9 -9.4 -5.8Z" fill="url(#lg-goat)"/><path d="M-11.2 0a11.2 9.2 0 1 0 22.4 0a11.2 9.2 0 1 0 -22.4 0Z" fill="none" stroke="#E6DECB" stroke-width="1.6" stroke-linecap="round" stroke-linejoin="round"/><path d="M5.1 3Q4.4 3.9 2.7 4Q1 4 .3 2.9Q-.4 1.8 .5 .9Q1.5 -.1 2.9 .4Q4.2 .8 5 1.5Q5.8 2.1 5.1 3Z" fill="rgba(210,200,180,.5)"/><path d="M-.8 -4.7Q.2 -4 -.8 -3.2Q-1.7 -2.5 -3.7 -2.7Q-5.6 -3 -6.7 -3.5Q-7.8 -4 -6.8 -4.6Q-5.8 -5.2 -3.8 -5.3Q-1.9 -5.4 -.8 -4.7Z" fill="rgba(255,255,255,.6)"/></g><g transform="translate(-48.5 7.1) rotate(-4.7) scale(1.21)"><path d="M10.8 -3.3Q12.4 -.1 10.8 3.1Q9.2 6.3 5.7 8.2Q2.3 10.2 -1.9 9.6Q-6.1 9 -8.5 6.2Q-10.8 3.4 -11.2 0Q-11.5 -3.4 -8.9 -6.1Q-6.3 -8.9 -2.2 -9.2Q1.9 -9.4 5.5 -8Q9.2 -6.6 10.8 -3.3Z" fill="url(#lg-goat)"/><path d="M-11.2 0a11.2 9.2 0 1 0 22.4 0a11.2 9.2 0 1 0 -22.4 0Z" fill="none" stroke="#E6DECB" stroke-width="1.6" stroke-linecap="round" stroke-linejoin="round"/><path d="M.5 2.6Q-.5 1.8 .5 .8Q1.5 -.2 3 .2Q4.4 .7 5.4 1.4Q6.4 2.2 5.2 2.8Q3.9 3.3 2.7 3.4Q1.5 3.4 .5 2.6Z" fill="rgba(210,200,180,.5)"/><path d="M-6.2 -3.1Q-7.9 -3.5 -7.3 -4.1Q-6.7 -4.8 -5 -5.1Q-3.4 -5.4 -1.5 -5Q.4 -4.6 0 -3.8Q-.4 -2.9 -2.5 -2.8Q-4.6 -2.7 -6.2 -3.1Z" fill="rgba(255,255,255,.6)"/></g></g></g></symbol><symbol id="ing-oeuf-poche-eparpille" viewBox="0 0 400 320"><g transform="translate(200 184)"><g transform="scale(1.3)"><path d="M-44.5 1.4Q-41 3.5 -43.8 6.1Q-46.6 8.7 -54 10.3Q-61.5 11.8 -69.2 11.4Q-77 11 -80.5 8.8Q-84 6.7 -81.2 4.1Q-78.4 1.5 -71 0Q-63.5 -1.6 -55.8 -1.2Q-48 -.8 -44.5 1.4ZM8.2 7Q11.3 9.7 7.6 12.1Q4 14.5 -4.4 15.2Q-12.7 15.8 -20.8 14.4Q-29 12.9 -32.1 10.2Q-35.3 7.4 -31.6 5Q-27.9 2.6 -19.6 2Q-11.3 1.3 -3.1 2.8Q5 4.3 8.2 7ZM79.8 10.6Q82.2 13.7 78 15.6Q73.8 17.5 65.4 17.1Q57 16.7 49.3 14.3Q41.7 11.8 39.2 8.7Q36.8 5.6 41 3.7Q45.3 1.8 53.7 2.2Q62.1 2.6 69.7 5Q77.4 7.5 79.8 10.6Z" fill="rgba(45,28,10,.15)"/><g transform="translate(-64 -1.3) rotate(-6.1) scale(1.14)"><path d="M-19 6Q-23.6 3 -20.4 -.9Q-17.2 -4.7 -14.6 -7.9Q-11.9 -11.2 -6.5 -14.2Q-1.1 -17.1 5.1 -15Q11.3 -12.9 14.4 -9.4Q17.5 -5.9 19 -2.3Q20.6 1.4 18.6 5.1Q16.7 8.8 12.4 12.4Q8.1 15.9 2 13.6Q-4.2 11.3 -9.3 10.2Q-14.4 9.1 -19 6Z" fill="url(#lg-eggwhite)"/><path d="M-8 -2a9 7.5 0 1 0 18 0a9 7.5 0 1 0 -18 0Z" fill="rgba(160,110,20,.2)"/><path d="M6.3 -7Q8.4 -5.3 8 -2.9Q7.7 -.5 5.8 1.3Q3.9 3 1.1 3.6Q-1.8 4.1 -4.1 2.7Q-6.4 1.2 -7.5 -1Q-8.6 -3.2 -7.5 -5.4Q-6.3 -7.6 -3.8 -8.9Q-1.3 -10.1 1.5 -9.4Q4.3 -8.7 6.3 -7Z" fill="url(#lg-yolk)"/><path d="M-6 -6.4Q-6.1 -7.4 -4.3 -7.6Q-2.5 -7.9 -.9 -7.4Q.7 -6.8 .3 -5.8Q-.1 -4.7 -1.8 -4.3Q-3.5 -3.9 -4.7 -4.6Q-5.9 -5.3 -6 -6.4Z" fill="rgba(255,255,255,.8)"/><path d="M-15.9 -6.7Q-14.4 -7.7 -10.7 -7.8Q-6.9 -8 -4.9 -7.1Q-2.8 -6.2 -4.2 -5.2Q-5.6 -4.3 -9 -4.3Q-12.5 -4.4 -15 -5.1Q-17.4 -5.8 -15.9 -6.7Z" fill="rgba(255,255,255,.5)"/></g><g transform="translate(-13.5 1.7) rotate(4) scale(1.24)"><path d="M-19.5 2.7Q-21.9 -.9 -20.6 -5.2Q-19.4 -9.5 -13.9 -12Q-8.4 -14.6 -2.3 -13.6Q3.9 -12.6 9.5 -11.4Q15.1 -10.3 17.6 -6.7Q20.1 -3.1 21.2 1.2Q22.4 5.4 17.6 8.3Q12.9 11.3 7.2 11.5Q1.4 11.8 -4.5 12.4Q-10.5 13.1 -13.8 9.7Q-17.1 6.4 -19.5 2.7Z" fill="url(#lg-eggwhite)"/><path d="M-8 -2a9 7.5 0 1 0 18 0a9 7.5 0 1 0 -18 0Z" fill="rgba(160,110,20,.2)"/><path d="M-6.7 -6.7Q-5.1 -8.7 -2.3 -9.4Q.5 -10.2 3.3 -9.2Q6.1 -8.3 7.4 -6Q8.7 -3.8 8.1 -1.4Q7.4 1 4.8 2.2Q2.3 3.5 -.5 3.4Q-3.3 3.3 -5.4 1.7Q-7.4 .1 -7.9 -2.3Q-8.4 -4.7 -6.7 -6.7Z" fill="url(#lg-yolk)"/><path d="M-5.9 -6.9Q-4.6 -7.7 -2.9 -7.7Q-1.2 -7.6 -.1 -6.8Q1 -5.9 -.3 -5.2Q-1.7 -4.6 -3.2 -4.5Q-4.7 -4.4 -5.9 -5.3Q-7.2 -6.1 -5.9 -6.9Z" fill="rgba(255,255,255,.8)"/><path d="M-14.6 -5.1Q-15.7 -6 -14.6 -6.9Q-13.6 -7.7 -9.9 -7.8Q-6.3 -7.9 -5.3 -6.9Q-4.4 -6 -5.6 -5.2Q-6.9 -4.5 -10.2 -4.4Q-13.5 -4.2 -14.6 -5.1Z" fill="rgba(255,255,255,.5)"/></g><g transform="translate(58 2.7) rotate(14.1) scale(1.24)"><path d="M8.5 -14.9Q15.2 -13.4 17.4 -9.1Q19.6 -4.8 19.2 -1Q18.8 2.8 17.4 6.8Q16 10.8 10.1 12Q4.2 13.2 -1.1 12.2Q-6.4 11.2 -13.5 10.7Q-20.7 10.2 -21.4 5.6Q-22.1 1 -22.2 -3.6Q-22.2 -8.2 -16.2 -10.3Q-10.1 -12.5 -4.1 -14.4Q1.9 -16.4 8.5 -14.9Z" fill="url(#lg-eggwhite)"/><path d="M-8 -2a9 7.5 0 1 0 18 0a9 7.5 0 1 0 -18 0Z" fill="rgba(160,110,20,.2)"/><path d="M4.2 2.5Q1.8 3.7 -1 3.3Q-3.8 3 -5.7 1.3Q-7.6 -.4 -7.8 -2.7Q-8 -5.1 -6.3 -7Q-4.6 -9 -1.8 -9.6Q1.1 -10.1 3.6 -8.8Q6 -7.5 7.1 -5.4Q8.3 -3.3 7.5 -1Q6.7 1.2 4.2 2.5Z" fill="url(#lg-yolk)"/><path d="M-6.1 -6.1Q-6 -7.2 -4.4 -7.7Q-2.7 -8.3 -1.3 -7.6Q.1 -6.9 -.3 -6Q-.6 -5.1 -1.9 -4.5Q-3.2 -3.9 -4.7 -4.5Q-6.2 -5.1 -6.1 -6.1Z" fill="rgba(255,255,255,.8)"/><path d="M-10.6 -4Q-14.6 -4.1 -16.3 -5.1Q-18 -6.2 -15.7 -7.1Q-13.3 -8 -10 -7.7Q-6.7 -7.4 -5.1 -6.6Q-3.6 -5.8 -5.1 -4.9Q-6.7 -4 -10.6 -4Z" fill="rgba(255,255,255,.5)"/></g></g></g></symbol><symbol id="ing-persil-eparpille" viewBox="0 0 400 320"><g transform="translate(200 184)"><g transform="scale(1.3)"><g transform="translate(47.6 17.4) rotate(134.2) scale(1.12)"><path d="M-3.2 -5.2C-.8 -3.1 -1.1 -.2 -3.2 1.3C-5.1 -.2 -5.3 -3.1 -3.2 -5.2Z" fill="url(#lg-parsley)"/><path d="M0 -7C2.4 -4.9 2.1 -2 0 -.5C-1.9 -2 -2.1 -4.9 0 -7Z" fill="url(#lg-parsley)"/><path d="M3.2 -5.2C5.5 -3.1 5.3 -.2 3.2 1.3C1.3 -.2 1.1 -3.1 3.2 -5.2Z" fill="url(#lg-parsley)"/><path d="M0 4.9L0 0" fill="none" stroke="#3E6E28" stroke-width="0.9" stroke-linecap="round" stroke-linejoin="round"/></g><g transform="translate(1.8 -14.8) rotate(346.4) scale(1.09)"><path d="M-3.6 -5.9C-.9 -3.5 -1.2 -.2 -3.6 1.4C-5.7 -.2 -6 -3.5 -3.6 -5.9Z" fill="url(#lg-parsley)"/><path d="M0 -7.9C2.7 -5.5 2.4 -2.2 0 -.5C-2.1 -2.2 -2.4 -5.5 0 -7.9Z" fill="url(#lg-parsley)"/><path d="M3.6 -5.9C6.2 -3.5 6 -.2 3.6 1.4C1.4 -.2 1.2 -3.5 3.6 -5.9Z" fill="url(#lg-parsley)"/><path d="M0 5.5L0 0" fill="none" stroke="#3E6E28" stroke-width="0.9" stroke-linecap="round" stroke-linejoin="round"/></g><g transform="translate(-22.5 14.6) rotate(179.3) scale(.9)"><path d="M-3.9 -6.4C-1 -3.8 -1.3 -.2 -3.9 1.6C-6.2 -.2 -6.5 -3.8 -3.9 -6.4Z" fill="url(#lg-parsley)"/><path d="M0 -8.6C2.9 -6 2.6 -2.4 0 -.6C-2.3 -2.4 -2.6 -6 0 -8.6Z" fill="url(#lg-parsley)"/><path d="M3.9 -6.4C6.8 -3.8 6.5 -.2 3.9 1.6C1.6 -.2 1.3 -3.8 3.9 -6.4Z" fill="url(#lg-parsley)"/><path d="M0 6L0 0" fill="none" stroke="#3E6E28" stroke-width="0.9" stroke-linecap="round" stroke-linejoin="round"/></g><g transform="translate(-3.6 1) rotate(91.6) scale(1.02)"><path d="M-4.4 -7.3C-1.1 -4.4 -1.5 -.3 -4.4 1.8C-7.1 -.3 -7.4 -4.4 -4.4 -7.3Z" fill="url(#lg-parsley)"/><path d="M0 -9.8C3.3 -6.8 3 -2.7 0 -.7C-2.7 -2.7 -3 -6.8 0 -9.8Z" fill="url(#lg-parsley)"/><path d="M4.4 -7.3C7.7 -4.4 7.4 -.3 4.4 1.8C1.8 -.3 1.5 -4.4 4.4 -7.3Z" fill="url(#lg-parsley)"/><path d="M0 6.8L0 0" fill="none" stroke="#3E6E28" stroke-width="0.9" stroke-linecap="round" stroke-linejoin="round"/></g><g transform="translate(-2.5 -36.9) rotate(301.5) scale(1.14)"><path d="M-4.3 -7.1C-1.1 -4.2 -1.4 -.3 -4.3 1.7C-6.9 -.3 -7.1 -4.2 -4.3 -7.1Z" fill="url(#lg-parsley)"/><path d="M0 -9.5C3.2 -6.6 2.9 -2.6 0 -.7C-2.6 -2.6 -2.9 -6.6 0 -9.5Z" fill="url(#lg-parsley)"/><path d="M4.3 -7.1C7.5 -4.2 7.2 -.3 4.3 1.7C1.7 -.3 1.4 -4.2 4.3 -7.1Z" fill="url(#lg-parsley)"/><path d="M0 6.6L0 0" fill="none" stroke="#3E6E28" stroke-width="0.9" stroke-linecap="round" stroke-linejoin="round"/></g><g transform="translate(51.5 25) rotate(282.5) scale(.96)"><path d="M-4.1 -6.8C-1.1 -4 -1.4 -.3 -4.1 1.6C-6.6 -.3 -6.8 -4 -4.1 -6.8Z" fill="url(#lg-parsley)"/><path d="M0 -9.1C3.1 -6.3 2.7 -2.5 0 -.6C-2.5 -2.5 -2.7 -6.3 0 -9.1Z" fill="url(#lg-parsley)"/><path d="M4.1 -6.8C7.2 -4 6.9 -.3 4.1 1.6C1.6 -.3 1.4 -4 4.1 -6.8Z" fill="url(#lg-parsley)"/><path d="M0 6.3L0 0" fill="none" stroke="#3E6E28" stroke-width="0.9" stroke-linecap="round" stroke-linejoin="round"/></g><g transform="translate(36.8 21.3) rotate(26.4) scale(1.06)"><path d="M-3.3 -5.4C-.8 -3.2 -1.1 -.2 -3.3 1.3C-5.3 -.2 -5.5 -3.2 -3.3 -5.4Z" fill="url(#lg-parsley)"/><path d="M0 -7.3C2.5 -5.1 2.2 -2 0 -.5C-2 -2 -2.2 -5.1 0 -7.3Z" fill="url(#lg-parsley)"/><path d="M3.3 -5.4C5.8 -3.2 5.5 -.2 3.3 1.3C1.3 -.2 1.1 -3.2 3.3 -5.4Z" fill="url(#lg-parsley)"/><path d="M0 5.1L0 0" fill="none" stroke="#3E6E28" stroke-width="0.9" stroke-linecap="round" stroke-linejoin="round"/></g><g transform="translate(-51.2 27) rotate(281.4) scale(.92)"><path d="M-4.4 -7.3C-1.1 -4.4 -1.5 -.3 -4.4 1.8C-7.1 -.3 -7.4 -4.4 -4.4 -7.3Z" fill="url(#lg-parsley)"/><path d="M0 -9.8C3.3 -6.8 3 -2.7 0 -.7C-2.7 -2.7 -3 -6.8 0 -9.8Z" fill="url(#lg-parsley)"/><path d="M4.4 -7.3C7.7 -4.4 7.4 -.3 4.4 1.8C1.8 -.3 1.5 -4.4 4.4 -7.3Z" fill="url(#lg-parsley)"/><path d="M0 6.8L0 0" fill="none" stroke="#3E6E28" stroke-width="0.9" stroke-linecap="round" stroke-linejoin="round"/></g><g transform="translate(53.9 -4.3) rotate(239.2) scale(1.03)"><path d="M-4.5 -7.4C-1.2 -4.4 -1.5 -.3 -4.5 1.8C-7.2 -.3 -7.5 -4.4 -4.5 -7.4Z" fill="url(#lg-parsley)"/><path d="M0 -9.9C3.4 -6.9 3 -2.8 0 -.7C-2.7 -2.8 -3 -6.9 0 -9.9Z" fill="url(#lg-parsley)"/><path d="M4.5 -7.4C7.9 -4.4 7.5 -.3 4.5 1.8C1.8 -.3 1.5 -4.4 4.5 -7.4Z" fill="url(#lg-parsley)"/><path d="M0 6.9L0 0" fill="none" stroke="#3E6E28" stroke-width="0.9" stroke-linecap="round" stroke-linejoin="round"/></g><g transform="translate(-77.8 6.2) rotate(217.9) scale(.86)"><path d="M-3.7 -6.2C-1 -3.7 -1.2 -.2 -3.7 1.5C-6 -.2 -6.2 -3.7 -3.7 -6.2Z" fill="url(#lg-parsley)"/><path d="M0 -8.3C2.8 -5.8 2.5 -2.3 0 -.6C-2.2 -2.3 -2.5 -5.8 0 -8.3Z" fill="url(#lg-parsley)"/><path d="M3.7 -6.2C6.5 -3.7 6.3 -.2 3.7 1.5C1.5 -.2 1.2 -3.7 3.7 -6.2Z" fill="url(#lg-parsley)"/><path d="M0 5.8L0 0" fill="none" stroke="#3E6E28" stroke-width="0.9" stroke-linecap="round" stroke-linejoin="round"/></g><g transform="translate(-34.7 30) rotate(333.1) scale(.99)"><path d="M-3.9 -6.5C-1 -3.8 -1.3 -.2 -3.9 1.6C-6.3 -.2 -6.5 -3.8 -3.9 -6.5Z" fill="url(#lg-parsley)"/><path d="M0 -8.6C2.9 -6 2.6 -2.4 0 -.6C-2.3 -2.4 -2.6 -6 0 -8.6Z" fill="url(#lg-parsley)"/><path d="M3.9 -6.5C6.8 -3.8 6.5 -.2 3.9 1.6C1.6 -.2 1.3 -3.8 3.9 -6.5Z" fill="url(#lg-parsley)"/><path d="M0 6L0 0" fill="none" stroke="#3E6E28" stroke-width="0.9" stroke-linecap="round" stroke-linejoin="round"/></g><g transform="translate(-2 -9.1) rotate(103.4) scale(1.04)"><path d="M-3.9 -6.5C-1 -3.9 -1.3 -.2 -3.9 1.6C-6.3 -.2 -6.6 -3.9 -3.9 -6.5Z" fill="url(#lg-parsley)"/><path d="M0 -8.7C2.9 -6.1 2.6 -2.4 0 -.6C-2.4 -2.4 -2.6 -6.1 0 -8.7Z" fill="url(#lg-parsley)"/><path d="M3.9 -6.5C6.9 -3.9 6.6 -.2 3.9 1.6C1.6 -.2 1.3 -3.9 3.9 -6.5Z" fill="url(#lg-parsley)"/><path d="M0 6.1L0 0" fill="none" stroke="#3E6E28" stroke-width="0.9" stroke-linecap="round" stroke-linejoin="round"/></g><g transform="translate(-87.5 -14.5) rotate(236.5) scale(.86)"><path d="M-4.6 -7.6C-1.2 -4.5 -1.5 -.3 -4.6 1.8C-7.3 -.3 -7.6 -4.5 -4.6 -7.6Z" fill="url(#lg-parsley)"/><path d="M0 -10.1C3.4 -7 3.1 -2.8 0 -.7C-2.7 -2.8 -3.1 -7 0 -10.1Z" fill="url(#lg-parsley)"/><path d="M4.6 -7.6C8 -4.5 7.6 -.3 4.6 1.8C1.8 -.3 1.5 -4.5 4.6 -7.6Z" fill="url(#lg-parsley)"/><path d="M0 7L0 0" fill="none" stroke="#3E6E28" stroke-width="0.9" stroke-linecap="round" stroke-linejoin="round"/></g><g transform="translate(-1.8 -4.8) rotate(260.9) scale(.9)"><path d="M-3.1 -5.2C-.8 -3.1 -1 -.2 -3.1 1.3C-5 -.2 -5.2 -3.1 -3.1 -5.2Z" fill="url(#lg-parsley)"/><path d="M0 -6.9C2.3 -4.8 2.1 -1.9 0 -.5C-1.9 -1.9 -2.1 -4.8 0 -6.9Z" fill="url(#lg-parsley)"/><path d="M3.1 -5.2C5.5 -3.1 5.3 -.2 3.1 1.3C1.3 -.2 1.1 -3.1 3.1 -5.2Z" fill="url(#lg-parsley)"/><path d="M0 4.8L0 0" fill="none" stroke="#3E6E28" stroke-width="0.9" stroke-linecap="round" stroke-linejoin="round"/></g><g transform="translate(10.3 4.1) rotate(33.4) scale(1)"><path d="M-4.1 -6.8C-1.1 -4.1 -1.4 -.3 -4.1 1.7C-6.6 -.3 -6.9 -4.1 -4.1 -6.8Z" fill="url(#lg-parsley)"/><path d="M0 -9.1C3.1 -6.4 2.8 -2.6 0 -.6C-2.5 -2.6 -2.8 -6.4 0 -9.1Z" fill="url(#lg-parsley)"/><path d="M4.1 -6.8C7.2 -4.1 6.9 -.3 4.1 1.7C1.7 -.3 1.4 -4.1 4.1 -6.8Z" fill="url(#lg-parsley)"/><path d="M0 6.4L0 0" fill="none" stroke="#3E6E28" stroke-width="0.9" stroke-linecap="round" stroke-linejoin="round"/></g><g transform="translate(-96.9 -7.2) rotate(342.1) scale(.94)"><path d="M-4.4 -7.3C-1.1 -4.4 -1.5 -.3 -4.4 1.8C-7.1 -.3 -7.4 -4.4 -4.4 -7.3Z" fill="url(#lg-parsley)"/><path d="M0 -9.8C3.3 -6.8 3 -2.7 0 -.7C-2.7 -2.7 -3 -6.8 0 -9.8Z" fill="url(#lg-parsley)"/><path d="M4.4 -7.3C7.7 -4.4 7.4 -.3 4.4 1.8C1.8 -.3 1.5 -4.4 4.4 -7.3Z" fill="url(#lg-parsley)"/><path d="M0 6.8L0 0" fill="none" stroke="#3E6E28" stroke-width="0.9" stroke-linecap="round" stroke-linejoin="round"/></g></g></g></symbol></defs>
<g id="salade-lardons-oeuf-chevre-l0" data-layer="0" data-explode="0,0,190"><g class="L"><use href="#ing-assiette" width="400" height="320"/></g></g>
<g id="salade-lardons-oeuf-chevre-l1" data-layer="1" data-explode="0,-3,185.7" data-anchor="278.6,185.7" data-finish="0"><g class="L"><use href="#ing-laitue-plat" width="400" height="320"/></g></g>
<g id="salade-lardons-oeuf-chevre-l2" data-layer="2" data-explode="16,4,180.2" data-anchor="310,180.2" data-finish="0"><g class="L"><use href="#ing-lardons-eparpille" width="400" height="320" transform="translate(0 -4)"/></g></g>
<g id="salade-lardons-oeuf-chevre-l3" data-layer="3" data-explode="-12,-4,172.5" data-anchor="228,172.5" data-finish="0"><g class="L"><use href="#ing-chevre-eparpille" width="400" height="320" transform="translate(0 -8)"/></g></g>
<g id="salade-lardons-oeuf-chevre-l4" data-layer="4" data-explode="14,3,173.8" data-anchor="303.2,173.8" data-finish="0"><g class="L"><use href="#ing-oeuf-poche-eparpille" width="400" height="320" transform="translate(0 -12)"/></g></g>
<g id="salade-lardons-oeuf-chevre-l5" data-layer="5" data-explode="-6,-2,162.9" data-anchor="272.1,162.9" data-finish="1"><g class="L"><use href="#ing-persil-eparpille" width="400" height="320" transform="translate(0 -16)"/></g></g>
</svg>